<svg xmlns="http://www.w3.org/2000/svg" viewBox="0 0 62.61 92.49"><path d="M62.49,59A24,24,0,0,0,52.32,40.34,22.65,22.65,0,0,1,50,43.57a22.88,22.88,0,0,1-2.81,2.67,16.79,16.79,0,0,1,7.59,13.11c.1,7.21,0,20.68,0,25.18l-.13.14H13.08V82H41.9a10,10,0,0,0,5.34-1.46A10.13,10.13,0,0,0,50,65.83,9.86,9.86,0,0,0,46.62,63a9.74,9.74,0,0,0-4.26-1.08c-1.13,0-2.36,0-3.74,0h-.16a2.2,2.2,0,0,0-1,.23A2.87,2.87,0,0,0,36,63.51a2.91,2.91,0,0,0-.18,2l.66,2.44a2.47,2.47,0,0,0,.86,1.32,2.43,2.43,0,0,0,1.49.5h3a2.31,2.31,0,0,1,.9.12,2.23,2.23,0,0,1,.78.47,2.14,2.14,0,0,1,.53.73,2.13,2.13,0,0,1,.06,1.71,2.18,2.18,0,0,1-.46.7,2.57,2.57,0,0,1-.82.53,2.48,2.48,0,0,1-1,.17h-7.6l-7-26.6a21.67,21.67,0,0,0,5.51.43,17.22,17.22,0,0,0,8.62-2.78,22.68,22.68,0,0,0,7-7c1.52-2.34,3.13-6,3.09-13A59,59,0,0,0,51.07,19,19.93,19.93,0,0,0,46.81,7.52,19.72,19.72,0,0,0,36.7.76C35.91.54,35.12.39,34.35.23L33.57.07,33,0H29.68a2.36,2.36,0,0,0-.8.14c-9.41,1.37-17,9.58-17.41,18.76-.14,3.41-.08,6.92,0,10a18.86,18.86,0,0,0,2.83,9.5C5.2,42.31,0,50.25,0,60.32v18.1A3.58,3.58,0,0,0,3.59,82h.63a1,1,0,0,1,.74.31,1.05,1.05,0,0,1,.3.74v2.08A7.34,7.34,0,0,0,7.4,90.34a7.25,7.25,0,0,0,5.15,2.15h44.3a5.7,5.7,0,0,0,4-1.67,5.79,5.79,0,0,0,1.69-4C62.62,78,62.65,66.08,62.49,59ZM36.93,9.24c3.57,1.39,6,4,6,7.1h-13ZM29.76,8.3l-8,8h-2.1C19.67,12.23,24.07,8.82,29.76,8.3ZM19.23,24.73V24h24.1v1.6A19.45,19.45,0,0,1,42.67,32a12.1,12.1,0,0,1-4.57,6,12,12,0,0,1-7.22,2.12c-.45,0-.89,0-1.33-.11a12,12,0,0,1-7.12-3.79,12.12,12.12,0,0,1-3.14-7.47C19.2,27.45,19.22,26.13,19.23,24.73ZM7.8,74.08V59.61A15,15,0,0,1,18.53,45.15l2,7.67q2.81,10.63,5.63,21.26Z" fill="#6b46c1"></path></svg>