<svg xmlns="http://www.w3.org/2000/svg" viewBox="0 0 98.34 95.07"><path d="M97.67,46.84,52,1.17a4,4,0,0,0-5.69,0L.67,46.84a2.36,2.36,0,0,0-.5.74,2.34,2.34,0,0,0,0,1.75,2.36,2.36,0,0,0,.5.74l2.46,2.46a2.23,2.23,0,0,0,1.62.67,2.23,2.23,0,0,0,1.61-.67L49.17,9.72,73.58,34.13V82.26A4.73,4.73,0,0,1,68.84,87H29.5a4.75,4.75,0,0,1-4.74-4.74V40.88l-8,7.7V82.26A12.8,12.8,0,0,0,29.52,95.07H68.86A12.82,12.82,0,0,0,81.67,82.26V42.18L92,52.53a2.48,2.48,0,0,0,.74.5,2.36,2.36,0,0,0,1.76,0,2.48,2.48,0,0,0,.74-.5l2.45-2.44a2.29,2.29,0,0,0,0-3.24" fill="#ecc94b"></path></svg>