<?xml version="1.0" encoding="utf-8"?>
<!-- Generator: Adobe Illustrator 24.3.0, SVG Export Plug-In . SVG Version: 6.00 Build 0)  -->
<svg version="1.1" id="Layer_1" xmlns="http://www.w3.org/2000/svg" xmlns:xlink="http://www.w3.org/1999/xlink" x="0px" y="0px"
stroke="rgb(20 184 166)"
	 viewBox="0 0 64 64" enable-background="new 0 0 64 64" xml:space="preserve">
<path d="M23.6,50.9C23.7,51,23.9,51,24,51s0.3,0,0.4-0.1c7-3.2,11.6-10.3,11.6-18V31c0-0.5-0.4-0.9-0.9-1l-3-0.3
	c-3.9-0.4-6.9-4.9-7.1-5.8c0-0.5-0.5-1-1-1c-0.5,0-1,0.4-1,0.9c0,0,0,0,0,0.1c-0.2,0.9-3.2,5.4-7.1,5.8l-3,0.3c-0.5,0-0.9,0.5-0.9,1
	v1.9C12,40.6,16.5,47.7,23.6,50.9z M14,31.9l2.1-0.2c3.4-0.3,6.4-3.1,7.9-5.4c1.5,2.2,4.5,5.1,7.9,5.4l2.1,0.2v1c0,6.8-3.9,13-10,16
	c-6.1-3-10-9.2-10-16V31.9z"/>
<path d="M50,38c-1.4,0-2.7,0.3-4,0.7V9c0-0.6-0.4-1-1-1h-9h-4.1c-0.5-3.4-3.4-6-6.9-6h-2c-3.5,0-6.4,2.6-6.9,6H12H3C2.4,8,2,8.4,2,9
	v52c0,0.6,0.4,1,1,1h42c0.5,0,0.8-0.3,0.9-0.7c1.3,0.5,2.6,0.7,4.1,0.7c6.6,0,12-5.4,12-12S56.6,38,50,38z M44,39.6
	c-0.7,0.4-1.4,0.9-2,1.5V13c0-0.6-0.4-1-1-1h-4v-2h7V39.6z M12,16h24c0.6,0,1-0.4,1-1v-1h3v29.4c-1.3,1.9-2,4.2-2,6.6
	c0,2.2,0.6,4.2,1.6,6H8V14h3v1C11,15.6,11.4,16,12,16z M17,10c0.6,0,1-0.4,1-1c0-2.8,2.2-5,5-5h2c2.8,0,5,2.2,5,5c0,0.6,0.4,1,1,1h4
	v3v1H13v-1v-3H17z M4,60V10h7v2H7c-0.6,0-1,0.4-1,1v44c0,0.6,0.4,1,1,1h34c0,0,0,0,0.1,0c0.7,0.8,1.5,1.4,2.3,2H4z M50,60
	c-5.5,0-10-4.5-10-10s4.5-10,10-10s10,4.5,10,10S55.5,60,50,60z"/>
<path d="M54,46v-3c0-0.6-0.4-1-1-1h-6c-0.6,0-1,0.4-1,1v3h-3c-0.6,0-1,0.4-1,1v6c0,0.6,0.4,1,1,1h3v3c0,0.6,0.4,1,1,1h6
	c0.6,0,1-0.4,1-1v-3h3c0.6,0,1-0.4,1-1v-6c0-0.6-0.4-1-1-1H54z M56,52h-3c-0.6,0-1,0.4-1,1v3h-4v-3c0-0.6-0.4-1-1-1h-3v-4h3
	c0.6,0,1-0.4,1-1v-3h4v3c0,0.6,0.4,1,1,1h3V52z"/>
<path d="M32,33h-2c0,4.6-2.5,8.8-6.5,11.1l1.1,1.7C29.1,43.2,32,38.3,32,33z"/>
</svg>
