<svg xmlns="http://www.w3.org/2000/svg" viewBox="0 0 96.77 101.46"><path 
d="M46.71,101.46A25.06,25.06,0,0,1,38.32,100c-7.9-2.91-14.19-9.52-17.58-18.23a31.36,31.36,0,0,1,.32-23.87C24.61,50,31.71,44,41.23,40.49l10.16-3.71c19-6.94,35.48-.33,42.74,17.26a33,33,0,0,1,2.42,16.77,25.65,25.65,0,0,1-9.84,16.94,21.67,21.67,0,0,1-8.71,4,23.66,23.66,0,0,1-9.51.16,21.53,21.53,0,0,1-15-11.77l-.81-1.46a2.27,2.27,0,0,1-.32-1,2,2,0,0,1,.16-1A3.59,3.59,0,0,1,53,76a1.62,1.62,0,0,1,.81-.64l2.9-1.45a2.2,2.2,0,0,1,1-.33,2.09,2.09,0,0,1,1,.16,3.87,3.87,0,0,1,.8.49,3.5,3.5,0,0,1,.65.8l.81,1.46a13.49,13.49,0,0,0,9.19,7.42,17.7,17.7,0,0,0,5.81,0,16.06,16.06,0,0,0,5.32-2.42c4.19-3.39,10.32-10.81,5-23.71C80.74,44.36,69,39.68,54.13,45.16l-10,3.71c-7.42,2.75-12.74,7.26-15.48,13.07-2.42,5.16-2.42,11.45-.17,17.42,2.42,6.45,7.1,11.29,12.59,13.39a18.35,18.35,0,0,0,15.32-1.94A20.45,20.45,0,0,0,64.29,96l-4.51,1.94a26.94,26.94,0,0,1-13.07,3.55" fill=" #f687b3"></path><path d="M32.36,39.2a13,13,0,0,1-6-1.46,17.72,17.72,0,0,1-8.87-19.19,11.68,11.68,0,0,1,2.25-5,11.41,11.41,0,0,1,4.36-3.39A12.24,12.24,0,0,1,29.45,9a12.56,12.56,0,0,1,5.32,1.45,17.73,17.73,0,0,1,8.88,19.2,11.82,11.82,0,0,1-2.26,5,12.2,12.2,0,0,1-4.2,3.39,10.67,10.67,0,0,1-4.83,1.13ZM28.81,16.78a5.82,5.82,0,0,0-1.62.32c-2.58,1.13-3.38,5.48-1.61,9.35A8.83,8.83,0,0,0,29.77,31a4.63,4.63,0,0,0,1.94.64,3.83,3.83,0,0,0,1.94-.32A6.31,6.31,0,0,0,35.26,30a4.14,4.14,0,0,0,.8-1.93,8.94,8.94,0,0,0-.8-6.13c-1.29-3.23-4-5.33-6.45-5.16" 
fill=" #f687b3"></path><path d="M13.16,54.36H12a13.41,13.41,0,0,1-7.9-3.71C-.71,46-1.36,38.87,2.51,34.68c4-4,11.13-3.71,16,1s5.49,11.77,1.62,16a8.66,8.66,0,0,1-3.23,2.09,7.21,7.21,0,0,1-3.71.65ZM9.45,39.2a1.24,1.24,0,0,0-.81.16c-.32.16-.48.32-.8.48-1,1-.65,3.55,1.45,5.49a5.81,5.81,0,0,0,3.55,1.77H14l1-.48c1-1,.65-3.55-1.45-5.49A6.76,6.76,0,0,0,9.45,39.2Z" 
fill=" #f687b3"></path><path d="M58,31a12.1,12.1,0,0,1-8.55-3.55,17,17,0,0,1-5-10,18.56,18.56,0,0,1,1.94-11,12.5,12.5,0,0,1,3.55-4.19,11.37,11.37,0,0,1,5-2.1,10.62,10.62,0,0,1,5.48.49,12.62,12.62,0,0,1,4.68,2.9,17,17,0,0,1,5,10,18.56,18.56,0,0,1-1.94,11,10.64,10.64,0,0,1-3.55,4,11.49,11.49,0,0,1-5,2.1A5.68,5.68,0,0,1,58,31ZM56.71,7.74h-.48c-2.91.49-4.68,4.36-4,8.55s3.55,7.42,6.46,6.94,4.67-4.36,4-8.55c-.65-3.87-3.23-6.94-6-6.94" 
fill=" #f687b3"></path><path d="M82.68,33.55a8,8,0,0,1-1.94-.16c-5.48-1.29-8.87-7.58-7.41-14.2a13.7,13.7,0,0,1,4.51-7.42,8.85,8.85,0,0,1,3.87-1.93,13.32,13.32,0,0,1,4.36-.16c5.48,1.29,8.87,7.58,7.42,14.19-1.29,5.65-6,9.68-10.81,9.68Zm1.45-16.77a2.87,2.87,0,0,0-1.61.64,6.55,6.55,0,0,0-1.94,3.39c-.64,2.74.49,5,1.78,5.32s3.39-1.29,4-4-.48-5-1.77-5.32h-.49" 
fill=" #f687b3"></path></svg>