<svg xmlns="http://www.w3.org/2000/svg" viewBox="0 0 61.18 95.52"><path d="M50.86,0H10.31A10.55,10.55,0,0,0,0,10.76v74a10.65,10.65,0,0,0,8.08,10.5V74.37h45v10.4a2.56,2.56,0,0,1-2.24,2.69H16.4A2.56,2.56,0,0,0,13.85,90v3a2.53,2.53,0,0,0,.2,1,2.42,2.42,0,0,0,.55.82,2.59,2.59,0,0,0,.83.56,2.66,2.66,0,0,0,1,.19H50.86A10.56,10.56,0,0,0,61.18,84.75v-74A10.55,10.55,0,0,0,50.86,0ZM53.1,66.29h-45V23.14h45Zm0-51.23h-45v-4.3a2.55,2.55,0,0,1,2.23-2.69H50.84a2.54,2.54,0,0,1,2.24,2.69Z" fill="#63b3ed"></path><path d="M31.35,76.35a4.46,4.46,0,0,0-2.76.4,4.49,4.49,0,0,0-2.44,4.73,4.5,4.5,0,0,0,3.76,3.76,4.56,4.56,0,0,0,2.76-.46,4.5,4.5,0,0,0-1.32-8.43Z" fill="#63b3ed"></path></svg>