<svg xmlns="http://www.w3.org/2000/svg" viewBox="0 0 99.24 94.55"><path d="M95.84,50.91H87l7.47-9.43a1.94,1.94,0,0,0,.21-.29A26.68,26.68,0,0,0,99,26.8,27,27,0,0,0,91.12,7.86,26.59,26.59,0,0,0,72.29,0a28.21,28.21,0,0,0-3.43.22,25.89,25.89,0,0,0-18.25,11c-4.7,6.92-5.17,12.24-5,13.76a2.31,2.31,0,0,0,.77,1.49,2.37,2.37,0,0,0,1.57.59H51A2.32,2.32,0,0,0,53.32,25a19.56,19.56,0,0,1,5.08-11.2A19.36,19.36,0,0,1,69.13,7.87a17.81,17.81,0,0,1,3.18-.27A19,19,0,0,1,85.8,13.23,19.33,19.33,0,0,1,91.39,26.8a19.1,19.1,0,0,1-2.92,10.06,1,1,0,0,1-.08.11l-11,13.94H68.41a1.05,1.05,0,0,1-.66-.22,1.09,1.09,0,0,1-.39-.57L63,34.51A3.36,3.36,0,0,0,59.62,32l-2.06.07a3.37,3.37,0,0,0-3.18,2.69l-3.65,18a1.1,1.1,0,0,1-1.06.88,1.08,1.08,0,0,1-1.06-.88L47,44.3l-1.8-9.37A3.39,3.39,0,0,0,42,32.16l-2-.07a3.46,3.46,0,0,0-2.06.61,3.39,3.39,0,0,0-1.34,1.89l-3.6,13a1.09,1.09,0,0,1-.39.57,1.05,1.05,0,0,1-.65.23H19.46L11.29,38.17A19.09,19.09,0,0,1,23.37,7.89a18.15,18.15,0,0,1,3.21-.27,19.06,19.06,0,0,1,15.8,8.45,37.26,37.26,0,0,1,2.72-4.7,25.53,25.53,0,0,1,1.61-2.11A26.47,26.47,0,0,0,9.94,5.9,26.86,26.86,0,0,0,5.27,42.75L44.76,92.39A5.8,5.8,0,0,0,46.82,94a5.68,5.68,0,0,0,2.44.54h.39a5.7,5.7,0,0,0,4.47-2.17L80.87,58.65l.1-.14H95.84a3.46,3.46,0,0,0,2.41-1,3.52,3.52,0,0,0,1-2.44v-.74a3.45,3.45,0,0,0-3.4-3.4ZM46.73,82.7,25.6,56.15,25.5,56H36.71a1.79,1.79,0,0,0,.79-.21,3.48,3.48,0,0,0,1.14-.91,3.4,3.4,0,0,0,.69-1.3c.23-1.47.4-3.76.6-5.24.14-1.13,1-1.05,1.27.07l4.08,16.37a3.43,3.43,0,0,0,.56,1.32,3.36,3.36,0,0,0,1.06,1,3.27,3.27,0,0,0,1.7.47h1.84a3.37,3.37,0,0,0,2.15-.77,3.45,3.45,0,0,0,1.2-2l2-7.7,2.45-9.36c.23-1.11,1.19-1,1.37.08.34,2,.69,5.91,1.06,7.9.31,1.66,2.37,2.76,4,2.76h6.57L50.27,85a1.1,1.1,0,0,1-.38.3,1.06,1.06,0,0,1-.94,0,1.07,1.07,0,0,1-.37-.3Z" fill="#68d391"></path></svg>